<?xml version="1.0" standalone="no"?>
<!DOCTYPE svg PUBLIC "-//W3C//DTD SVG 20010904//EN"
 "http://www.w3.org/TR/2001/REC-SVG-20010904/DTD/svg10.dtd">
<svg version="1.0" xmlns="http://www.w3.org/2000/svg"
 width="72.000000pt" height="72.000000pt" viewBox="0 0 72.000000 72.000000"
 preserveAspectRatio="xMidYMid meet">
<metadata>
Created by potrace 1.16, written by Peter Selinger 2001-2019
</metadata>
<g transform="translate(0.000000,72.000000) scale(0.100000,-0.100000)"
fill="currentColor" stroke="none">
<path d="M300 360 l0 -240 60 0 60 0 0 240 0 240 -60 0 -60 0 0 -240z"/>
<path d="M480 285 l0 -165 60 0 60 0 0 165 0 165 -60 0 -60 0 0 -165z"/>
<path d="M120 240 l0 -120 60 0 60 0 0 120 0 120 -60 0 -60 0 0 -120z"/>
</g>
</svg>
