<?xml version="1.0" encoding="UTF-8"?>
<svg width="31px" height="35px" viewBox="0 0 31 35" version="1.1" xmlns="http://www.w3.org/2000/svg" xmlns:xlink="http://www.w3.org/1999/xlink">
    <!-- Generator: Sketch 58 (84663) - https://sketch.com -->
    <title>Invest Icon</title>
    <desc>Created with Sketch.</desc>
    <g id="Page-1" stroke="none" stroke-width="1" fill="none" fill-rule="evenodd">
        <g id="iPhone-XR-Copy" transform="translate(-376.000000, -819.000000)">
            <g id="Bottom-Bar" transform="translate(237.000000, 819.000000)">
                <g id="Invest-Icon" transform="translate(139.000000, 0.000000)">
                    <path d="M21.852459,16.40625 C26.6238465,16.40625 30.4918033,20.5683437 30.4918033,25.7026743 C30.4918033,30.8370049 26.6238465,35 21.852459,35 C17.0814904,35 13.2131148,30.8370049 13.2131148,25.7026743 C13.2131148,20.5683437 17.0814904,16.40625 21.852459,16.40625 Z M6,18.6883784 L7.47751064,18.5245025 C7.64566619,19.5625324 8.13924508,20.122853 9.11027281,20.122853 C9.74902195,20.122853 10.5789119,19.8350601 10.5789119,18.9739264 C10.5789119,18.0777726 9.28205762,17.9125498 8.67355228,17.7428373 C7.47630089,17.409698 6.28267876,16.8242348 6.28267876,15.2267823 C6.28267876,13.8012871 7.29403156,13.1121107 8.41063281,12.9365615 L8.41063281,12 L9.68772784,12 L9.68772784,12.9392554 C10.8966735,13.1260289 11.8289892,13.8596538 11.878589,15.444984 L10.3591403,15.5029018 C10.2240513,14.6009113 9.79216978,14.2897717 8.9933301,14.2897717 C8.53120478,14.2897717 7.72913909,14.4433211 7.72913909,15.1140896 C7.72913909,15.8364901 8.87316139,16.0596306 9.34294848,16.1835477 C10.7998933,16.5651763 12.0983607,17.0464773 12.0983607,18.9644979 C12.0983607,20.6194192 10.9543384,21.3440646 9.68772784,21.5083894 L9.68772784,22.390625 L8.41063281,22.390625 L8.41063281,21.498063 C7.04885513,21.2924325 6.18549533,20.4218703 6,18.6883784 L6,18.6883784 Z M13.2131148,6.5095057 C14.6249593,2.58222433 18.0161627,0 21.7683205,0 C26.8666947,0 31,4.66920152 31,10.4296578 C31,13.0594106 30.1295869,15.5693916 28.5507274,17.5 C27.9609163,16.9529468 27.3176772,16.4781369 26.6315275,16.0846008 C27.9878406,14.595057 28.7446667,12.5665399 28.7446667,10.4296578 C28.7446667,6.07604563 25.6218652,2.5480038 21.7683205,2.5480038 C18.921914,2.5480038 16.3720959,4.48336502 15.3010124,7.4648289 L13.2131148,6.5095057 L13.2131148,6.5095057 Z M11.4583358,27.0772783 C10.7543036,27.2549261 10.0307621,27.34375 9.30679646,27.34375 C4.16736156,27.34375 0,22.9357526 0,17.4995514 C0,12.0637988 4.16736156,7.65625 9.30679646,7.65625 C13.5195384,7.65625 17.2089215,10.654729 18.295082,14.9550611 C17.5583929,15.2435144 16.8602983,15.6163056 16.210553,16.0617708 C15.5675935,12.5747605 12.6619763,10.0603268 9.30679646,10.0603268 C5.421896,10.0603268 2.27368464,13.3907738 2.27368464,17.4995514 C2.27368464,21.6087776 5.421896,24.9392246 9.30679646,24.9392246 C10.0112527,24.9392246 10.7144367,24.8302135 11.3883567,24.6103968 C11.3268599,25.4340365 11.3501862,26.259022 11.4583358,27.0772783 L11.4583358,27.0772783 Z M21.3442623,18.046875 C24.9928421,18.046875 27.9508197,21.2296163 27.9508197,25.1560151 C27.9508197,29.0824139 24.9928421,32.265625 21.3442623,32.265625 C17.6956825,32.265625 14.7377049,29.0824139 14.7377049,25.1560151 C14.7377049,21.2296163 17.6956825,18.046875 21.3442623,18.046875 Z" id="Shape" fill="currentColor"></path>
                    <g id="iconmonstr-bitcoin-1" transform="translate(18.000000, 20.000000)"></g>
                    <path d="M21.1111111,30 L21.1111111,28.7408333 L20.7222222,28.7408333 L20.7222222,30 L19.9444444,30 L19.9444444,28.7408333 L18.0120556,28.7408333 L18.2065,27.5 L18.6261111,27.5 C18.9698889,27.5 19.1666667,27.1454167 19.1666667,26.78875 L19.1666667,23.085 C19.1666667,22.7379167 18.9780556,22.5 18.6358333,22.5 L18,22.5 L18,21.25 L19.9444444,21.25 L19.9444444,20 L20.7222222,20 L20.7222222,21.25 L21.1111111,21.25 L21.1111111,20 L21.8888889,20 L21.8888889,21.2720833 C23.5669444,21.3329167 24.2315556,22.0141667 24.4221111,22.7825 C24.6476667,23.6908333 24.0888333,24.4533333 23.6081667,24.6391667 C24.1918889,24.7983333 25,25.2604167 25,26.3266667 C25,27.7779167 23.9546667,28.75 21.8888889,28.75 L21.8888889,30 L21.1111111,30 Z M20.7222222,25.4141667 L20.7222222,27.5 C22.2657222,27.5 23.3231111,27.34375 23.3231111,26.4516667 C23.3231111,25.495 22.1805556,25.4141667 20.7222222,25.4141667 Z M20.7222222,24.5833333 C21.5820556,24.5833333 22.8914444,24.5183333 22.8914444,23.5416667 C22.8914444,22.7083333 22.0833333,22.5 20.7222222,22.5 L20.7222222,24.5833333 Z" id="Shape" fill="currentColor" fill-rule="nonzero"></path>
                    <g id="ethereum" transform="translate(17.000000, 3.000000)" fill="currentColor" fill-rule="nonzero">
                        <path d="M4.48995127,7.90551156 L0.99,6 L4.48995127,13 L7.99,6 L4.48995127,7.90551156 Z M2.83285415,7.95514587 L4.48995127,8.85737505 L6.14714585,7.95514587 L4.48995127,11.2693797 L2.83285415,7.95514587 Z" id="Shape"></path>
                        <path d="M8,5.5000326 L4.49994958,0 L1,5.5000326 L4.49994958,7 L8,5.5000326 Z M4.49994958,1.40917919 L6.49624701,4.54616317 L4.49994958,3.69065527 L2.50375302,4.54616317 L4.49994958,1.40917919 Z M4.49994958,4.46869665 L6.54546111,5.34537327 L4.49994958,6.22195864 L2.45453892,5.34537327 L4.49994958,4.46869665 Z" id="Shape"></path>
                    </g>
                </g>
            </g>
        </g>
    </g>
</svg>