<?xml version="1.0" standalone="no"?>
<!DOCTYPE svg PUBLIC "-//W3C//DTD SVG 20010904//EN"
 "http://www.w3.org/TR/2001/REC-SVG-20010904/DTD/svg10.dtd">
<svg version="1.0" xmlns="http://www.w3.org/2000/svg"
 width="66.000000pt" height="75.000000pt" viewBox="0 0 66.000000 75.000000"
 preserveAspectRatio="xMidYMid meet">
<metadata>
Created by potrace 1.16, written by Peter Selinger 2001-2019
</metadata>
<g transform="translate(0.000000,75.000000) scale(0.100000,-0.100000)"
fill="currentColor" stroke="none">
<path d="M191 724 c-16 -13 -34 -38 -42 -56 -7 -18 -28 -45 -45 -61 -18 -15
-38 -45 -45 -65 -6 -20 -21 -50 -32 -66 -28 -39 -34 -123 -13 -164 9 -17 16
-52 16 -77 0 -56 19 -96 60 -125 16 -12 30 -27 30 -35 0 -7 16 -27 37 -45 35
-31 39 -32 97 -26 72 8 77 8 139 0 72 -9 91 0 150 74 69 86 87 121 87 172 0
22 7 52 16 65 24 36 15 127 -15 159 -12 13 -27 41 -33 62 -5 21 -25 53 -43 70
-18 17 -42 49 -54 72 -32 63 -50 71 -174 70 -99 0 -110 -2 -136 -24z m103 -20
c13 -5 16 -25 16 -111 0 -92 -2 -104 -16 -99 -9 3 -31 6 -50 6 -27 0 -37 5
-46 25 -11 25 -41 34 -53 15 -3 -5 2 -21 11 -35 10 -16 17 -45 16 -71 0 -32 4
-47 15 -51 18 -7 33 13 33 44 0 30 15 36 55 23 l35 -12 0 -188 0 -189 -35 -10
c-80 -22 -148 49 -119 123 8 21 52 21 75 0 19 -17 49 -13 49 6 0 24 -49 60
-83 60 -37 0 -87 -32 -87 -56 0 -20 -18 -17 -30 5 -14 27 -13 62 2 60 30 -4
55 3 78 20 20 16 22 22 11 35 -12 14 -16 14 -41 1 -16 -8 -35 -12 -44 -9 -16
6 -46 63 -46 89 0 21 24 68 44 84 9 8 16 24 16 38 0 35 16 61 49 77 18 10 31
28 40 55 17 57 59 83 105 65z m139 -14 c37 -29 42 -55 17 -80 -15 -15 -20 -31
-18 -58 4 -47 28 -50 40 -5 5 18 13 35 19 39 16 9 57 -34 65 -70 4 -17 17 -43
30 -58 29 -35 37 -63 30 -94 l-7 -25 -37 31 c-75 62 -99 25 -27 -43 50 -48 56
-76 29 -128 -14 -29 -17 -30 -33 -15 -30 28 -44 20 -38 -20 13 -79 -45 -138
-116 -117 l-32 9 -3 319 c-2 332 -2 334 39 335 9 0 28 -9 42 -20z"/>
</g>
</svg>
