<?xml version="1.0" standalone="no"?>
<!DOCTYPE svg PUBLIC "-//W3C//DTD SVG 20010904//EN"
 "http://www.w3.org/TR/2001/REC-SVG-20010904/DTD/svg10.dtd">
<svg version="1.0" xmlns="http://www.w3.org/2000/svg"
 width="72.000000pt" height="42.000000pt" viewBox="0 0 72.000000 42.000000"
 preserveAspectRatio="xMidYMid meet">
<metadata>
Created by potrace 1.16, written by Peter Selinger 2001-2019
</metadata>
<g transform="translate(0.000000,42.000000) scale(0.100000,-0.100000)"
fill="currentColor" stroke="none">
<path d="M484 405 c-13 -33 3 -45 63 -45 l58 0 -100 -100 -99 -99 -67 64 c-37
36 -75 65 -85 65 -10 0 -72 -53 -137 -119 -95 -95 -118 -123 -115 -142 2 -16
11 -25 26 -27 18 -3 46 19 125 97 l102 100 66 -65 c37 -35 75 -64 84 -64 10 0
71 52 136 116 l118 117 3 -59 c3 -55 5 -59 28 -59 l25 0 0 115 0 115 -113 3
c-93 2 -113 0 -118 -13z"/>
</g>
</svg>
