<?xml version="1.0" standalone="no"?>
<!DOCTYPE svg PUBLIC "-//W3C//DTD SVG 20010904//EN"
 "http://www.w3.org/TR/2001/REC-SVG-20010904/DTD/svg10.dtd">
<svg version="1.0" xmlns="http://www.w3.org/2000/svg"
 width="66.000000pt" height="66.000000pt" viewBox="0 0 66.000000 66.000000"
 preserveAspectRatio="xMidYMid meet">
<metadata>
Created by potrace 1.16, written by Peter Selinger 2001-2019
</metadata>
<g transform="translate(0.000000,66.000000) scale(0.100000,-0.100000)"
fill="currentColor" stroke="none">
<path d="M202 638 c-73 -28 -153 -109 -181 -183 -48 -127 -19 -267 74 -360 67
-67 137 -95 235 -95 96 0 167 28 234 93 93 92 123 234 75 362 -28 76 -108 156
-184 184 -74 28 -180 28 -253 -1z m98 -168 c0 -97 -3 -130 -12 -130 -7 -1 -62
-7 -122 -14 l-108 -12 5 53 c10 95 81 185 172 217 68 24 65 29 65 -114z m144
106 c47 -20 93 -63 124 -115 23 -40 27 -57 27 -126 0 -50 -6 -92 -15 -112
l-15 -33 -102 78 -102 77 -1 129 0 128 27 -7 c15 -3 41 -12 57 -19z m-18 -357
c52 -40 93 -77 91 -83 -2 -6 -25 -24 -50 -40 -38 -23 -62 -30 -120 -34 -84 -5
-137 13 -198 66 -37 33 -88 116 -77 127 5 5 179 30 241 34 10 0 60 -31 113
-70z"/>
</g>
</svg>
