<?xml version="1.0" standalone="no"?>
<!DOCTYPE svg PUBLIC "-//W3C//DTD SVG 20010904//EN"
 "http://www.w3.org/TR/2001/REC-SVG-20010904/DTD/svg10.dtd">
<svg version="1.0" xmlns="http://www.w3.org/2000/svg"
 width="54.000000pt" height="43.000000pt" viewBox="0 0 54.000000 43.000000"
 preserveAspectRatio="xMidYMid meet">
<metadata>
Created by potrace 1.16, written by Peter Selinger 2001-2019
</metadata>
<g transform="translate(0.000000,43.000000) scale(0.100000,-0.100000)"
fill="currentColor" stroke="none">
<path d="M172 405 c4 -19 1 -25 -13 -25 -17 0 -19 -9 -19 -90 0 -80 2 -90 18
-90 13 0 18 -8 17 -27 0 -22 5 -29 23 -31 19 -3 22 1 22 27 0 20 5 31 14 31
20 0 21 9 18 100 -3 61 -7 80 -18 80 -8 0 -14 10 -14 25 0 20 -5 25 -26 25
-23 0 -26 -3 -22 -25z"/>
<path d="M460 405 c0 -16 -6 -25 -15 -25 -12 0 -15 -17 -15 -90 0 -73 3 -90
15 -90 10 0 15 -10 15 -31 0 -26 3 -30 23 -27 16 2 23 11 25 31 2 15 9 27 18
27 11 0 14 19 14 90 0 73 -3 90 -15 90 -9 0 -15 9 -15 25 0 20 -5 25 -25 25
-20 0 -25 -5 -25 -25z"/>
<path d="M37 283 c-4 -3 -7 -17 -7 -30 0 -14 -6 -23 -15 -23 -12 0 -15 -17
-15 -90 0 -73 3 -90 15 -90 9 0 15 -9 15 -25 0 -20 5 -25 25 -25 20 0 25 5 25
25 0 16 6 25 15 25 12 0 15 17 15 90 0 73 -3 90 -15 90 -10 0 -15 10 -15 30 0
22 -5 30 -18 30 -10 0 -22 -3 -25 -7z"/>
<path d="M320 261 c0 -21 -5 -31 -15 -31 -12 0 -15 -17 -15 -90 0 -73 3 -90
15 -90 9 0 15 -9 15 -25 0 -20 5 -25 26 -25 23 0 26 3 22 25 -4 19 -1 25 13
25 17 0 19 9 19 90 0 80 -2 90 -18 90 -13 0 -18 8 -17 28 0 21 -5 28 -22 30
-20 3 -23 -1 -23 -27z"/>
</g>
</svg>
