<?xml version="1.0" standalone="no"?>
<!DOCTYPE svg PUBLIC "-//W3C//DTD SVG 20010904//EN"
 "http://www.w3.org/TR/2001/REC-SVG-20010904/DTD/svg10.dtd">
<svg version="1.0" xmlns="http://www.w3.org/2000/svg"
 width="38.000000pt" height="26.000000pt" viewBox="0 0 38.000000 26.000000"
 preserveAspectRatio="xMidYMid meet">
<metadata>
Created by potrace 1.16, written by Peter Selinger 2001-2019
</metadata>
<g transform="translate(0.000000,26.000000) scale(0.100000,-0.100000)"
fill="currentColor" stroke="none">
<path d="M286 171 c-77 -121 -78 -121 -112 -67 -51 80 -102 86 -148 16 -31
-48 -34 -80 -7 -80 13 0 28 15 42 40 13 22 26 40 31 40 4 0 24 -22 43 -49 64
-89 98 -79 183 56 65 105 74 133 43 133 -13 0 -37 -28 -75 -89z"/>
</g>
</svg>
