<?xml version="1.0" standalone="no"?>
<!DOCTYPE svg PUBLIC "-//W3C//DTD SVG 20010904//EN"
 "http://www.w3.org/TR/2001/REC-SVG-20010904/DTD/svg10.dtd">
<svg version="1.0" xmlns="http://www.w3.org/2000/svg"
 width="72.000000pt" height="72.000000pt" viewBox="0 0 72.000000 72.000000"
 preserveAspectRatio="xMidYMid meet">
<metadata>
Created by potrace 1.16, written by Peter Selinger 2001-2019
</metadata>
<g transform="translate(0.000000,72.000000) scale(0.100000,-0.100000)"
fill="currentColor" stroke="none">
<path d="M195 615 c-71 -39 -105 -97 -105 -180 0 -68 26 -123 76 -162 46 -35
152 -45 202 -19 37 19 52 20 52 3 0 -7 34 -46 75 -87 l75 -75 27 28 28 27 -75
75 c-41 41 -83 75 -92 75 -17 0 -17 2 2 40 43 85 18 200 -56 257 -31 23 -49
28 -108 31 -51 2 -79 -2 -101 -13z m153 -69 c81 -44 81 -178 0 -222 -30 -17
-96 -17 -126 0 -36 19 -62 66 -62 111 0 73 51 124 125 124 22 0 50 -5 63 -13z"/>
</g>
</svg>
